<svg xmlns="http://www.w3.org/2000/svg" version="1.1" xmlns:xlink="http://www.w3.org/1999/xlink" xmlns:svgjs="http://svgjs.dev/svgjs" width="1080" height="3000" preserveAspectRatio="none" viewBox="0 0 1080 3000"><g mask="url(&quot;#SvgjsMask1048&quot;)" fill="none"><rect width="1080" height="3000" x="0" y="0" fill="#0e2a47"></rect><path d="M513 2577L1128 3192" stroke-width="6" stroke="url(&quot;#SvgjsLinearGradient1049&quot;)" stroke-linecap="round" class="TopLeft"></path><path d="M899 2559L1195 2855" stroke-width="8" stroke="url(&quot;#SvgjsLinearGradient1049&quot;)" stroke-linecap="round" class="TopLeft"></path><path d="M298 1475L-431 746" stroke-width="6" stroke="url(&quot;#SvgjsLinearGradient1050&quot;)" stroke-linecap="round" class="BottomRight"></path><path d="M657 846L353 542" stroke-width="10" stroke="url(&quot;#SvgjsLinearGradient1049&quot;)" stroke-linecap="round" class="TopLeft"></path><path d="M936 15L505 -416" stroke-width="6" stroke="url(&quot;#SvgjsLinearGradient1050&quot;)" stroke-linecap="round" class="BottomRight"></path><path d="M779 1667L1097 1985" stroke-width="8" stroke="url(&quot;#SvgjsLinearGradient1049&quot;)" stroke-linecap="round" class="TopLeft"></path><path d="M777 1864L1246 2333" stroke-width="10" stroke="url(&quot;#SvgjsLinearGradient1050&quot;)" stroke-linecap="round" class="BottomRight"></path><path d="M4 1767L415 2178" stroke-width="6" stroke="url(&quot;#SvgjsLinearGradient1050&quot;)" stroke-linecap="round" class="BottomRight"></path><path d="M587 133L-144 -598" stroke-width="6" stroke="url(&quot;#SvgjsLinearGradient1049&quot;)" stroke-linecap="round" class="TopLeft"></path><path d="M1062 2315L293 1546" stroke-width="10" stroke="url(&quot;#SvgjsLinearGradient1050&quot;)" stroke-linecap="round" class="BottomRight"></path><path d="M652 2530L1172 3050" stroke-width="8" stroke="url(&quot;#SvgjsLinearGradient1049&quot;)" stroke-linecap="round" class="TopLeft"></path><path d="M648 589L-34 -93" stroke-width="6" stroke="url(&quot;#SvgjsLinearGradient1050&quot;)" stroke-linecap="round" class="BottomRight"></path><path d="M92 654L-184 378" stroke-width="8" stroke="url(&quot;#SvgjsLinearGradient1049&quot;)" stroke-linecap="round" class="TopLeft"></path><path d="M537 531L1272 1266" stroke-width="10" stroke="url(&quot;#SvgjsLinearGradient1049&quot;)" stroke-linecap="round" class="TopLeft"></path><path d="M460 2229L114 1883" stroke-width="8" stroke="url(&quot;#SvgjsLinearGradient1049&quot;)" stroke-linecap="round" class="TopLeft"></path><path d="M86 1410L479 1803" stroke-width="10" stroke="url(&quot;#SvgjsLinearGradient1050&quot;)" stroke-linecap="round" class="BottomRight"></path><path d="M821 431L275 -115" stroke-width="6" stroke="url(&quot;#SvgjsLinearGradient1050&quot;)" stroke-linecap="round" class="BottomRight"></path><path d="M1024 1102L1636 1714" stroke-width="10" stroke="url(&quot;#SvgjsLinearGradient1050&quot;)" stroke-linecap="round" class="BottomRight"></path><path d="M764 1184L450 870" stroke-width="8" stroke="url(&quot;#SvgjsLinearGradient1049&quot;)" stroke-linecap="round" class="TopLeft"></path><path d="M588 2323L1102 2837" stroke-width="8" stroke="url(&quot;#SvgjsLinearGradient1049&quot;)" stroke-linecap="round" class="TopLeft"></path><path d="M606 79L1033 506" stroke-width="6" stroke="url(&quot;#SvgjsLinearGradient1049&quot;)" stroke-linecap="round" class="TopLeft"></path><path d="M241 791L1048 1598" stroke-width="8" stroke="url(&quot;#SvgjsLinearGradient1050&quot;)" stroke-linecap="round" class="BottomRight"></path><path d="M215 846L-168 463" stroke-width="6" stroke="url(&quot;#SvgjsLinearGradient1050&quot;)" stroke-linecap="round" class="BottomRight"></path><path d="M1055 1621L1599 2165" stroke-width="6" stroke="url(&quot;#SvgjsLinearGradient1049&quot;)" stroke-linecap="round" class="TopLeft"></path><path d="M762 281L1149 668" stroke-width="8" stroke="url(&quot;#SvgjsLinearGradient1050&quot;)" stroke-linecap="round" class="BottomRight"></path><path d="M850 2266L1230 2646" stroke-width="8" stroke="url(&quot;#SvgjsLinearGradient1050&quot;)" stroke-linecap="round" class="BottomRight"></path><path d="M930 211L1219 500" stroke-width="10" stroke="url(&quot;#SvgjsLinearGradient1050&quot;)" stroke-linecap="round" class="BottomRight"></path><path d="M314 887L1034 1607" stroke-width="10" stroke="url(&quot;#SvgjsLinearGradient1049&quot;)" stroke-linecap="round" class="TopLeft"></path><path d="M391 1485L1022 2116" stroke-width="8" stroke="url(&quot;#SvgjsLinearGradient1049&quot;)" stroke-linecap="round" class="TopLeft"></path><path d="M737 107L1397 767" stroke-width="6" stroke="url(&quot;#SvgjsLinearGradient1050&quot;)" stroke-linecap="round" class="BottomRight"></path><path d="M954 2725L1661 3432" stroke-width="8" stroke="url(&quot;#SvgjsLinearGradient1050&quot;)" stroke-linecap="round" class="BottomRight"></path><path d="M261 765L548 1052" stroke-width="6" stroke="url(&quot;#SvgjsLinearGradient1050&quot;)" stroke-linecap="round" class="BottomRight"></path><path d="M324 1253L-343 586" stroke-width="8" stroke="url(&quot;#SvgjsLinearGradient1050&quot;)" stroke-linecap="round" class="BottomRight"></path><path d="M385 2176L790 2581" stroke-width="8" stroke="url(&quot;#SvgjsLinearGradient1050&quot;)" stroke-linecap="round" class="BottomRight"></path><path d="M718 2116L305 1703" stroke-width="6" stroke="url(&quot;#SvgjsLinearGradient1050&quot;)" stroke-linecap="round" class="BottomRight"></path><path d="M874 455L1223 804" stroke-width="8" stroke="url(&quot;#SvgjsLinearGradient1050&quot;)" stroke-linecap="round" class="BottomRight"></path><path d="M669 155L1069 555" stroke-width="8" stroke="url(&quot;#SvgjsLinearGradient1050&quot;)" stroke-linecap="round" class="BottomRight"></path><path d="M422 2679L695 2952" stroke-width="8" stroke="url(&quot;#SvgjsLinearGradient1050&quot;)" stroke-linecap="round" class="BottomRight"></path><path d="M404 40L687 323" stroke-width="6" stroke="url(&quot;#SvgjsLinearGradient1050&quot;)" stroke-linecap="round" class="BottomRight"></path><path d="M6 2097L760 2851" stroke-width="6" stroke="url(&quot;#SvgjsLinearGradient1049&quot;)" stroke-linecap="round" class="TopLeft"></path><path d="M375 1672L673 1970" stroke-width="6" stroke="url(&quot;#SvgjsLinearGradient1049&quot;)" stroke-linecap="round" class="TopLeft"></path><path d="M142 1828L755 2441" stroke-width="8" stroke="url(&quot;#SvgjsLinearGradient1050&quot;)" stroke-linecap="round" class="BottomRight"></path><path d="M689 133L-3 -559" stroke-width="6" stroke="url(&quot;#SvgjsLinearGradient1049&quot;)" stroke-linecap="round" class="TopLeft"></path><path d="M504 539L66 101" stroke-width="10" stroke="url(&quot;#SvgjsLinearGradient1049&quot;)" stroke-linecap="round" class="TopLeft"></path><path d="M645 1880L1329 2564" stroke-width="10" stroke="url(&quot;#SvgjsLinearGradient1049&quot;)" stroke-linecap="round" class="TopLeft"></path><path d="M708 2402L1498 3192" stroke-width="8" stroke="url(&quot;#SvgjsLinearGradient1049&quot;)" stroke-linecap="round" class="TopLeft"></path><path d="M189 2660L-382 2089" stroke-width="8" stroke="url(&quot;#SvgjsLinearGradient1049&quot;)" stroke-linecap="round" class="TopLeft"></path><path d="M686 1217L1149 1680" stroke-width="10" stroke="url(&quot;#SvgjsLinearGradient1050&quot;)" stroke-linecap="round" class="BottomRight"></path><path d="M786 1992L386 1592" stroke-width="6" stroke="url(&quot;#SvgjsLinearGradient1050&quot;)" stroke-linecap="round" class="BottomRight"></path><path d="M576 1099L-153 370" stroke-width="10" stroke="url(&quot;#SvgjsLinearGradient1050&quot;)" stroke-linecap="round" class="BottomRight"></path><path d="M581 608L1377 1404" stroke-width="10" stroke="url(&quot;#SvgjsLinearGradient1050&quot;)" stroke-linecap="round" class="BottomRight"></path><path d="M231 317L624 710" stroke-width="8" stroke="url(&quot;#SvgjsLinearGradient1050&quot;)" stroke-linecap="round" class="BottomRight"></path><path d="M263 655L535 927" stroke-width="10" stroke="url(&quot;#SvgjsLinearGradient1050&quot;)" stroke-linecap="round" class="BottomRight"></path><path d="M740 2430L280 1970" stroke-width="8" stroke="url(&quot;#SvgjsLinearGradient1049&quot;)" stroke-linecap="round" class="TopLeft"></path><path d="M154 1084L-457 473" stroke-width="6" stroke="url(&quot;#SvgjsLinearGradient1049&quot;)" stroke-linecap="round" class="TopLeft"></path><path d="M741 2331L1480 3070" stroke-width="10" stroke="url(&quot;#SvgjsLinearGradient1050&quot;)" stroke-linecap="round" class="BottomRight"></path><path d="M687 704L14 31" stroke-width="6" stroke="url(&quot;#SvgjsLinearGradient1049&quot;)" stroke-linecap="round" class="TopLeft"></path><path d="M292 650L-316 42" stroke-width="6" stroke="url(&quot;#SvgjsLinearGradient1049&quot;)" stroke-linecap="round" class="TopLeft"></path><path d="M781 69L45 -667" stroke-width="10" stroke="url(&quot;#SvgjsLinearGradient1050&quot;)" stroke-linecap="round" class="BottomRight"></path><path d="M277 194L818 735" stroke-width="8" stroke="url(&quot;#SvgjsLinearGradient1050&quot;)" stroke-linecap="round" class="BottomRight"></path><path d="M543 919L1269 1645" stroke-width="6" stroke="url(&quot;#SvgjsLinearGradient1050&quot;)" stroke-linecap="round" class="BottomRight"></path><path d="M1010 1045L701 736" stroke-width="8" stroke="url(&quot;#SvgjsLinearGradient1049&quot;)" stroke-linecap="round" class="TopLeft"></path><path d="M943 2980L236 2273" stroke-width="10" stroke="url(&quot;#SvgjsLinearGradient1050&quot;)" stroke-linecap="round" class="BottomRight"></path><path d="M486 1583L-320 777" stroke-width="10" stroke="url(&quot;#SvgjsLinearGradient1049&quot;)" stroke-linecap="round" class="TopLeft"></path><path d="M319 2087L-221 1547" stroke-width="6" stroke="url(&quot;#SvgjsLinearGradient1050&quot;)" stroke-linecap="round" class="BottomRight"></path><path d="M1031 1899L234 1102" stroke-width="10" stroke="url(&quot;#SvgjsLinearGradient1049&quot;)" stroke-linecap="round" class="TopLeft"></path><path d="M1017 528L293 -196" stroke-width="8" stroke="url(&quot;#SvgjsLinearGradient1050&quot;)" stroke-linecap="round" class="BottomRight"></path><path d="M396 447L-174 -123" stroke-width="10" stroke="url(&quot;#SvgjsLinearGradient1049&quot;)" stroke-linecap="round" class="TopLeft"></path><path d="M106 2195L-557 1532" stroke-width="8" stroke="url(&quot;#SvgjsLinearGradient1049&quot;)" stroke-linecap="round" class="TopLeft"></path><path d="M177 889L-164 548" stroke-width="6" stroke="url(&quot;#SvgjsLinearGradient1049&quot;)" stroke-linecap="round" class="TopLeft"></path><path d="M112 1670L-645 913" stroke-width="8" stroke="url(&quot;#SvgjsLinearGradient1049&quot;)" stroke-linecap="round" class="TopLeft"></path><path d="M929 528L225 -176" stroke-width="6" stroke="url(&quot;#SvgjsLinearGradient1050&quot;)" stroke-linecap="round" class="BottomRight"></path><path d="M726 2232L229 1735" stroke-width="6" stroke="url(&quot;#SvgjsLinearGradient1049&quot;)" stroke-linecap="round" class="TopLeft"></path><path d="M158 2094L576 2512" stroke-width="8" stroke="url(&quot;#SvgjsLinearGradient1050&quot;)" stroke-linecap="round" class="BottomRight"></path><path d="M997 2368L1432 2803" stroke-width="10" stroke="url(&quot;#SvgjsLinearGradient1049&quot;)" stroke-linecap="round" class="TopLeft"></path><path d="M944 2820L550 2426" stroke-width="10" stroke="url(&quot;#SvgjsLinearGradient1050&quot;)" stroke-linecap="round" class="BottomRight"></path><path d="M521 2190L1324 2993" stroke-width="10" stroke="url(&quot;#SvgjsLinearGradient1050&quot;)" stroke-linecap="round" class="BottomRight"></path><path d="M125 2433L733 3041" stroke-width="6" stroke="url(&quot;#SvgjsLinearGradient1049&quot;)" stroke-linecap="round" class="TopLeft"></path><path d="M458 2464L1210 3216" stroke-width="8" stroke="url(&quot;#SvgjsLinearGradient1050&quot;)" stroke-linecap="round" class="BottomRight"></path><path d="M40 1270L-597 633" stroke-width="10" stroke="url(&quot;#SvgjsLinearGradient1049&quot;)" stroke-linecap="round" class="TopLeft"></path></g><defs><mask id="SvgjsMask1048"><rect width="1080" height="3000" fill="#ffffff"></rect></mask><linearGradient x1="100%" y1="100%" x2="0%" y2="0%" id="SvgjsLinearGradient1049"><stop stop-color="rgba(28, 83, 142, 0)" offset="0"></stop><stop stop-color="#1c538e" offset="1"></stop></linearGradient><linearGradient x1="0%" y1="0%" x2="100%" y2="100%" id="SvgjsLinearGradient1050"><stop stop-color="rgba(28, 83, 142, 0)" offset="0"></stop><stop stop-color="#1c538e" offset="1"></stop></linearGradient></defs></svg>